<!DOCTYPE svg PUBLIC "-//W3C//DTD SVG 1.1//EN" "http://www.w3.org/Graphics/SVG/1.1/DTD/svg11.dtd" [
	<!ENTITY ns_flows "http://ns.adobe.com/Flows/1.0/">
]><svg xmlns="http://www.w3.org/2000/svg" width="56" height="50" viewBox="-0.062 -0.231 595 531"><path fill-rule="evenodd" clip-rule="evenodd" fill="#1EB519" d="M322.417 0l-60.014 98.257-154.05 224.102-12.52-115.16"/><path fill-rule="evenodd" clip-rule="evenodd" fill="#028E37" d="M322.417 0l174.976 247.094 12.076 75.717L262.402 98.258"/><path fill-rule="evenodd" clip-rule="evenodd" fill="#72D32C" d="M497.393 247.094L95.833 207.2l12.06 115.082 401.653.07"/><path fill-rule="evenodd" clip-rule="evenodd" fill="#8BDB4D" d="M95.833 207.2s24.636 1.903 61.585 4.762c18.448 1.614 39.988 3.503 63.05 5.522 23.053 2.192 47.646 4.522 72.24 6.857l72.17 7.49c23.015 2.555 44.494 4.94 62.908 6.986l61.314 7.454-61.582-4.757c-18.457-1.615-39.986-3.503-63.06-5.525l-72.23-6.86c-24.567-2.55-49.134-5.1-72.172-7.493-23.01-2.555-44.495-4.94-62.91-6.987-36.79-4.473-61.313-7.45-61.313-7.45z"/><path fill-rule="evenodd" clip-rule="evenodd" fill="#4CC646" d="M183.83 212.885s8.067-13.626 20.502-33.854c6.313-10.054 13.668-21.778 21.556-34.344 8.025-12.476 16.59-25.78 25.146-39.088 8.746-13.188 17.492-26.377 25.678-38.74 8.345-12.274 16.123-23.73 22.795-33.542C313.024 13.8 322.27.938 322.27.938s-8.064 13.632-20.494 33.86c-6.313 10.05-13.677 21.778-21.565 34.343-8.023 12.472-16.59 25.777-25.144 39.084l-25.69 38.738c-8.332 12.27-16.11 23.725-22.784 33.542-13.527 19.518-22.76 32.38-22.76 32.38z"/><path fill-rule="evenodd" clip-rule="evenodd" fill="#0E1011" d="M46.958 409.688l-3.833 31.626c-3.834 33.222-5.43 38.332-10.063 45.84h48.715v-77.466h-34.82zm-28.91 118.195c-.16 2.396-.958 2.875-2.715 2.875H4.793c-1.44 0-2.397-.48-2.557-2.875L0 495.14c0-3.674.8-7.187 5.75-7.666l5.75-.48c7.667-8.625 9.264-17.57 11.34-33.86l6.55-50.793c1.117-6.548 4.312-9.74 11.818-9.74h49.354c7.826 0 10.542 3.513 10.542 10.7v84.014l6.55.32c5.11.48 5.59 3.354 5.43 6.07l-2.077 34.18c-.16 2.396-.798 2.875-2.555 2.875h-10.7c-1.758 0-2.238-.48-2.397-2.876l-.958-23.48H19.965l-1.917 23.48zM198.542 444.826l-31.466 52.71c-3.195 5.27-4.792 6.868-10.542 6.868h-5.59c-7.188 0-9.264-3.354-9.264-9.584v-99.667c0-2.396.958-2.716 3.034-2.716h13.258c2.396 0 3.035.32 3.035 2.716v80.82h.64l13.256-22.36 32.265-54.148c3.194-5.59 4.79-7.027 10.38-7.027h5.752c7.027 0 9.263 2.875 9.263 9.742v99.51c0 2.395-.958 2.715-3.035 2.715h-13.256c-2.396 0-3.035-.32-3.035-2.716v-81.14h-.64l-14.055 24.276zM353.64 504.404H341.5c-2.556 0-3.673-.64-3.673-3.354v-46.96h-49.674v46.96c0 3.033-.8 3.354-3.834 3.354h-12.14c-2.396 0-3.673-.64-3.673-3.354V395.952c0-2.717 1.277-3.354 3.673-3.354h12.14c3.034 0 3.832.32 3.832 3.354v41.368h49.675v-41.368c0-2.717 1.117-3.354 3.673-3.354h12.14c3.034 0 3.673.32 3.673 3.354v105.1c0 3.032-.64 3.352-3.674 3.352zM447.402 463.354l-8.304-26.832-6.71-22.682h-.798l-6.55 22.2-8.305 27.314h30.667zm-35.458 16.612l-7.027 21.723c-.64 1.916-1.6 2.715-4.153 2.715H386.07c-2.396 0-2.875-1.6-2.236-3.354l34.5-101.104c2.077-6.07 4.153-7.668 10.223-7.668h6.868c6.55 0 8.625 1.438 10.7 7.668l34.66 101.105c.64 1.756.32 3.355-2.075 3.355h-14.694c-2.396 0-3.674-.16-4.474-2.556l-7.027-21.884h-40.57zM532.22 392.598h52.39c6.868 0 10.223 3.514 10.223 10.7v98.39c0 2.397-.64 2.717-3.035 2.717H578.22c-2.075 0-3.034-.32-3.034-2.716v-92.002h-35.14l-.957 13.896c-3.355 47.918-4.634 74.59-34.66 83.536-2.078.48-3.516.16-4.314-2.236l-3.354-9.424c-.48-1.916-.48-3.034 1.917-4.152 17.888-7.668 18.366-21.883 21.722-65.966L522 403.3c.478-7.668 3.67-10.702 10.22-10.702z"/></svg>