<!DOCTYPE svg PUBLIC "-//W3C//DTD SVG 1.1//EN" "http://www.w3.org/Graphics/SVG/1.1/DTD/svg11.dtd" [
	<!ENTITY ns_flows "http://ns.adobe.com/Flows/1.0/">
]>
<svg xmlns="http://www.w3.org/2000/svg" width="56" height="50" viewBox="-0.339 -0.11 597 533">
  <path fill-rule="evenodd" clip-rule="evenodd" fill="#FFF" d="M47.033 411l-3.84 31.673c-3.84 33.27-5.436 38.39-10.08 45.908h48.793V411H47.033zM18.078 529.372c-.16 2.397-.957 2.877-2.72 2.877H4.806c-1.44 0-2.403-.48-2.56-2.878L0 496.578c0-3.68.805-7.198 5.76-7.678l5.76-.48c7.678-8.637 9.274-17.595 11.36-33.91l6.557-50.87c1.122-6.557 4.314-9.756 11.835-9.756H90.7c7.837 0 10.555 3.52 10.555 10.718v84.14l6.558.32c5.12.478 5.6 3.358 5.442 6.077l-2.077 34.232c-.166 2.397-.806 2.877-2.56 2.877h-10.72c-1.755 0-2.237-.48-2.395-2.878l-.964-23.515H19.996l-1.92 23.515zM198.843 446.19l-31.515 52.79c-3.2 5.276-4.796 6.877-10.556 6.877h-5.6c-7.2 0-9.278-3.36-9.278-9.598V396.44c0-2.4.957-2.72 3.042-2.72h13.273c2.4 0 3.04.32 3.04 2.72v80.94h.64l13.274-22.393 32.314-54.23c3.2-5.598 4.796-7.037 10.396-7.037h5.76c7.04 0 9.275 2.88 9.275 9.756v99.656c0 2.4-.958 2.72-3.043 2.72h-13.273c-2.402 0-3.042-.32-3.042-2.72v-81.262h-.64l-14.07 24.316zM354.17 505.857h-12.158c-2.56 0-3.675-.642-3.675-3.36V455.47h-49.75v47.028c0 3.04-.8 3.36-3.84 3.36h-12.16c-2.4 0-3.673-.643-3.673-3.36V397.243c0-2.72 1.273-3.36 3.674-3.36h12.16c3.042 0 3.84.32 3.84 3.36v41.43h49.75v-41.43c0-2.72 1.113-3.36 3.674-3.36h12.16c3.04 0 3.68.32 3.68 3.36v105.255c0 3.04-.64 3.36-3.68 3.36zM448.07 464.747l-8.312-26.873-6.725-22.715h-.797l-6.558 22.233-8.32 27.354h30.712zm-35.506 16.637l-7.04 21.754c-.64 1.92-1.604 2.72-4.164 2.72h-14.71c-2.402 0-2.884-1.6-2.244-3.36l34.558-101.254c2.078-6.08 4.155-7.68 10.23-7.68h6.882c6.56 0 8.636 1.44 10.714 7.68L481.505 502.5c.64 1.758.316 3.358-2.078 3.358H464.71c-2.402 0-3.684-.16-4.48-2.56l-7.04-21.914h-40.626zM533.018 393.884h52.47c6.873 0 10.23 3.52 10.23 10.718v98.536c0 2.4-.64 2.72-3.035 2.72h-13.598c-2.077 0-3.04-.32-3.04-2.72V411h-35.19l-.964 13.915c-3.356 47.99-4.637 74.704-34.707 83.662-2.077.48-3.516.16-4.32-2.24l-3.358-9.438c-.48-1.92-.48-3.04 1.92-4.16 17.92-7.678 18.393-21.915 21.75-66.062l1.604-22.077c.48-7.678 3.678-10.716 10.238-10.716zM325.308 5.185l168.25 233.467-86.164-8.17-141.91-124.545M101.688 201.553L322.088 0l-59.703 98.362-76.168 111.464M497.64 246.458l-401.425-38.76 12.368 114.977 401.41-1.04"/>
</svg>
